<svg xmlns="http://www.w3.org/2000/svg" xmlns:xlink="http://www.w3.org/1999/xlink" width="200" zoomAndPan="magnify" viewBox="0 0 150 60" height="80" preserveAspectRatio="xMidYMid meet" version="1.0"><defs><g/><clipPath id="0745c982e7"><path d="M 2.148438 24 L 32 24 L 32 45.152344 L 2.148438 45.152344 Z M 2.148438 24 " clip-rule="nonzero"/></clipPath><clipPath id="e93f9dcc7d"><path d="M 2.148438 17 L 32 17 L 32 39 L 2.148438 39 Z M 2.148438 17 " clip-rule="nonzero"/></clipPath><clipPath id="60862ce512"><path d="M 2.148438 11.402344 L 32 11.402344 L 32 33 L 2.148438 33 Z M 2.148438 11.402344 " clip-rule="nonzero"/></clipPath><clipPath id="418a87e785"><rect x="0" width="112" y="0" height="25"/></clipPath></defs><g clip-path="url(#0745c982e7)"><path fill="#ffd700" d="M 2.183594 45.128906 L 31.726562 45.152344 L 16.984375 24.636719 Z M 2.183594 45.128906 " fill-opacity="1" fill-rule="nonzero"/></g><g clip-path="url(#e93f9dcc7d)"><path fill="#ffd700" d="M 2.613281 38.230469 L 16.984375 18.335938 L 31.28125 38.242188 L 2.613281 38.230469 M 2.148438 38.230469 C 2.148438 38.300781 2.160156 38.371094 2.195312 38.441406 C 2.273438 38.59375 2.4375 38.699219 2.613281 38.699219 L 31.28125 38.710938 C 31.457031 38.710938 31.621094 38.617188 31.703125 38.453125 C 31.738281 38.382812 31.75 38.3125 31.75 38.242188 C 31.75 38.148438 31.714844 38.054688 31.65625 37.972656 L 17.355469 18.066406 C 17.261719 17.949219 17.121094 17.867188 16.984375 17.867188 C 16.832031 17.867188 16.691406 17.9375 16.609375 18.066406 L 2.242188 37.949219 C 2.183594 38.03125 2.148438 38.125 2.148438 38.230469 Z M 2.148438 38.230469 " fill-opacity="1" fill-rule="nonzero"/></g><g clip-path="url(#60862ce512)"><path fill="#ffd700" d="M 2.636719 31.625 L 17.007812 11.742188 L 31.304688 31.648438 L 2.636719 31.625 M 2.171875 31.625 C 2.171875 31.695312 2.183594 31.765625 2.21875 31.835938 C 2.296875 31.988281 2.460938 32.09375 2.636719 32.09375 L 31.304688 32.117188 C 31.480469 32.117188 31.644531 32.023438 31.726562 31.859375 C 31.761719 31.789062 31.773438 31.71875 31.773438 31.648438 C 31.773438 31.554688 31.738281 31.460938 31.679688 31.378906 L 17.378906 11.472656 C 17.285156 11.359375 17.144531 11.277344 17.007812 11.277344 C 16.855469 11.277344 16.714844 11.347656 16.632812 11.472656 L 2.265625 31.34375 C 2.207031 31.425781 2.171875 31.53125 2.171875 31.625 Z M 2.171875 31.625 " fill-opacity="1" fill-rule="nonzero"/></g><g transform="matrix(1, 0, 0, 1, 36, 20)"><g clip-path="url(#418a87e785)"><g fill="#e0f2f1" fill-opacity="1"><g transform="translate(0.791556, 19.810659)"><g><path d="M 1.9375 -1.625 L 1.9375 -16.53125 C 1.925781 -16.71875 1.894531 -16.914062 1.84375 -17.125 C 1.789062 -17.332031 1.765625 -17.53125 1.765625 -17.71875 C 1.765625 -17.9375 1.835938 -18.109375 1.984375 -18.234375 C 2.128906 -18.367188 2.414062 -18.4375 2.84375 -18.4375 L 13.4375 -18.4375 C 13.59375 -18.4375 13.765625 -18.410156 13.953125 -18.359375 C 14.148438 -18.304688 14.332031 -18.222656 14.5 -18.109375 C 14.664062 -17.984375 14.804688 -17.820312 14.921875 -17.625 C 15.035156 -17.425781 15.097656 -17.1875 15.109375 -16.90625 C 15.109375 -16.425781 14.957031 -16.023438 14.65625 -15.703125 C 14.507812 -15.546875 14.332031 -15.421875 14.125 -15.328125 C 13.925781 -15.234375 13.695312 -15.1875 13.4375 -15.1875 L 5.328125 -15.1875 L 5.328125 -10.359375 L 11.390625 -10.359375 C 11.609375 -10.359375 11.820312 -10.320312 12.03125 -10.25 C 12.238281 -10.175781 12.421875 -10.070312 12.578125 -9.9375 C 12.742188 -9.789062 12.875 -9.617188 12.96875 -9.421875 C 13.0625 -9.222656 13.109375 -8.992188 13.109375 -8.734375 C 13.109375 -8.484375 13.0625 -8.253906 12.96875 -8.046875 C 12.875 -7.847656 12.742188 -7.671875 12.578125 -7.515625 C 12.242188 -7.191406 11.847656 -7.03125 11.390625 -7.03125 L 5.328125 -7.03125 L 5.328125 -1.625 C 5.328125 -1.15625 5.175781 -0.742188 4.875 -0.390625 C 4.71875 -0.222656 4.535156 -0.09375 4.328125 0 C 4.117188 0.09375 3.882812 0.140625 3.625 0.140625 C 3.363281 0.140625 3.128906 0.09375 2.921875 0 C 2.710938 -0.09375 2.535156 -0.222656 2.390625 -0.390625 C 2.085938 -0.742188 1.9375 -1.15625 1.9375 -1.625 Z M 1.9375 -1.625 "/></g></g></g><g fill="#e0f2f1" fill-opacity="1"><g transform="translate(16.532874, 19.810659)"><g><path d="M 14.96875 -1.71875 C 14.96875 -1.457031 14.921875 -1.222656 14.828125 -1.015625 C 14.742188 -0.804688 14.628906 -0.628906 14.484375 -0.484375 C 14.191406 -0.160156 13.816406 0 13.359375 0 L 3.828125 0 C 3.546875 -0.0078125 3.289062 -0.0664062 3.0625 -0.171875 C 2.832031 -0.273438 2.632812 -0.414062 2.46875 -0.59375 C 2.101562 -0.957031 1.921875 -1.425781 1.921875 -2 L 1.921875 -16.75 C 1.898438 -16.957031 1.867188 -17.148438 1.828125 -17.328125 C 1.816406 -17.429688 1.800781 -17.523438 1.78125 -17.609375 C 1.769531 -17.691406 1.765625 -17.78125 1.765625 -17.875 C 1.765625 -18.101562 1.84375 -18.269531 2 -18.375 C 2.082031 -18.4375 2.195312 -18.484375 2.34375 -18.515625 C 2.5 -18.546875 2.703125 -18.5625 2.953125 -18.5625 C 3.296875 -18.5625 3.609375 -18.53125 3.890625 -18.46875 C 4.179688 -18.40625 4.4375 -18.300781 4.65625 -18.15625 C 4.851562 -18 5.007812 -17.785156 5.125 -17.515625 C 5.25 -17.253906 5.3125 -16.925781 5.3125 -16.53125 L 5.3125 -3.40625 L 13.265625 -3.40625 C 13.710938 -3.40625 14.101562 -3.253906 14.4375 -2.953125 C 14.601562 -2.796875 14.734375 -2.613281 14.828125 -2.40625 C 14.921875 -2.195312 14.96875 -1.96875 14.96875 -1.71875 Z M 14.96875 -1.71875 "/></g></g></g><g fill="#e0f2f1" fill-opacity="1"><g transform="translate(32.274191, 19.810659)"><g><path d="M 17.171875 -16.734375 C 17.171875 -16.285156 17.015625 -15.878906 16.703125 -15.515625 L 10.46875 -8.0625 L 10.46875 -1.546875 C 10.46875 -1.066406 10.304688 -0.660156 9.984375 -0.328125 C 9.648438 -0.00390625 9.242188 0.15625 8.765625 0.15625 C 8.273438 0.15625 7.875 -0.00390625 7.5625 -0.328125 C 7.238281 -0.660156 7.078125 -1.066406 7.078125 -1.546875 L 7.078125 -8.015625 L 0.84375 -15.515625 C 0.519531 -15.890625 0.359375 -16.296875 0.359375 -16.734375 C 0.359375 -16.960938 0.394531 -17.175781 0.46875 -17.375 C 0.550781 -17.570312 0.679688 -17.753906 0.859375 -17.921875 C 1.023438 -18.085938 1.21875 -18.210938 1.4375 -18.296875 C 1.65625 -18.390625 1.875 -18.441406 2.09375 -18.453125 C 2.3125 -18.453125 2.519531 -18.40625 2.71875 -18.3125 C 2.925781 -18.226562 3.101562 -18.09375 3.25 -17.90625 L 8.765625 -10.9375 L 14.28125 -17.90625 C 14.425781 -18.09375 14.597656 -18.226562 14.796875 -18.3125 C 15.003906 -18.40625 15.21875 -18.453125 15.4375 -18.453125 C 15.664062 -18.441406 15.882812 -18.390625 16.09375 -18.296875 C 16.3125 -18.210938 16.507812 -18.085938 16.6875 -17.921875 C 17.007812 -17.597656 17.171875 -17.203125 17.171875 -16.734375 Z M 17.171875 -16.734375 "/></g></g></g><g fill="#e0f2f1" fill-opacity="1"><g transform="translate(49.762936, 19.810659)"><g><path d="M 15.40625 -17.453125 C 15.59375 -17.023438 15.597656 -16.59375 15.421875 -16.15625 L 9.59375 -0.921875 C 9.457031 -0.566406 9.242188 -0.296875 8.953125 -0.109375 C 8.660156 0.078125 8.335938 0.164062 7.984375 0.15625 C 7.648438 0.164062 7.335938 0.078125 7.046875 -0.109375 C 6.753906 -0.296875 6.535156 -0.566406 6.390625 -0.921875 L 0.5625 -16.15625 C 0.382812 -16.59375 0.390625 -17.023438 0.578125 -17.453125 C 0.660156 -17.648438 0.78125 -17.828125 0.9375 -17.984375 C 1.101562 -18.148438 1.296875 -18.273438 1.515625 -18.359375 C 1.734375 -18.441406 1.953125 -18.476562 2.171875 -18.46875 C 2.398438 -18.46875 2.613281 -18.429688 2.8125 -18.359375 C 3.019531 -18.273438 3.203125 -18.148438 3.359375 -17.984375 C 3.515625 -17.828125 3.640625 -17.640625 3.734375 -17.421875 L 7.984375 -5.671875 L 12.265625 -17.421875 C 12.328125 -17.640625 12.4375 -17.828125 12.59375 -17.984375 C 12.757812 -18.148438 12.941406 -18.273438 13.140625 -18.359375 C 13.347656 -18.429688 13.566406 -18.46875 13.796875 -18.46875 C 14.023438 -18.476562 14.25 -18.441406 14.46875 -18.359375 C 14.695312 -18.273438 14.890625 -18.148438 15.046875 -17.984375 C 15.203125 -17.828125 15.320312 -17.648438 15.40625 -17.453125 Z M 15.40625 -17.453125 "/></g></g></g><g fill="#e0f2f1" fill-opacity="1"><g transform="translate(65.749758, 19.810659)"><g><path d="M 5.3125 -16.703125 L 5.3125 -1.625 C 5.3125 -1.15625 5.160156 -0.742188 4.859375 -0.390625 C 4.546875 -0.0351562 4.128906 0.140625 3.609375 0.140625 C 3.347656 0.140625 3.109375 0.09375 2.890625 0 C 2.679688 -0.101562 2.507812 -0.242188 2.375 -0.421875 C 2.070312 -0.765625 1.921875 -1.164062 1.921875 -1.625 L 1.921875 -16.609375 C 1.898438 -16.816406 1.867188 -17.007812 1.828125 -17.1875 C 1.816406 -17.28125 1.800781 -17.367188 1.78125 -17.453125 C 1.769531 -17.546875 1.765625 -17.632812 1.765625 -17.71875 C 1.765625 -17.957031 1.84375 -18.128906 2 -18.234375 C 2.082031 -18.285156 2.195312 -18.328125 2.34375 -18.359375 C 2.5 -18.398438 2.703125 -18.421875 2.953125 -18.421875 C 3.273438 -18.421875 3.578125 -18.394531 3.859375 -18.34375 C 4.140625 -18.300781 4.382812 -18.210938 4.59375 -18.078125 C 4.800781 -17.953125 4.96875 -17.773438 5.09375 -17.546875 C 5.21875 -17.328125 5.289062 -17.046875 5.3125 -16.703125 Z M 5.3125 -16.703125 "/></g></g></g><g fill="#e0f2f1" fill-opacity="1"><g transform="translate(72.840569, 19.810659)"><g><path d="M 11.65625 -9.15625 L 17.828125 -2.734375 C 17.992188 -2.566406 18.113281 -2.378906 18.1875 -2.171875 C 18.269531 -1.960938 18.3125 -1.75 18.3125 -1.53125 C 18.3125 -1.320312 18.269531 -1.109375 18.1875 -0.890625 C 18.113281 -0.679688 17.988281 -0.492188 17.8125 -0.328125 C 17.46875 0.015625 17.054688 0.1875 16.578125 0.1875 C 16.109375 0.1875 15.71875 0.0078125 15.40625 -0.34375 L 9.46875 -6.84375 L 3.546875 -0.34375 C 3.242188 0 2.851562 0.171875 2.375 0.171875 C 2.144531 0.171875 1.925781 0.128906 1.71875 0.046875 C 1.507812 -0.0351562 1.316406 -0.160156 1.140625 -0.328125 C 0.960938 -0.492188 0.832031 -0.679688 0.75 -0.890625 C 0.675781 -1.109375 0.640625 -1.320312 0.640625 -1.53125 C 0.640625 -1.988281 0.800781 -2.390625 1.125 -2.734375 L 7.328125 -9.21875 L 1.1875 -15.53125 C 1.019531 -15.695312 0.894531 -15.882812 0.8125 -16.09375 C 0.726562 -16.300781 0.6875 -16.515625 0.6875 -16.734375 C 0.6875 -17.191406 0.859375 -17.585938 1.203125 -17.921875 C 1.367188 -18.097656 1.5625 -18.226562 1.78125 -18.3125 C 2.007812 -18.394531 2.226562 -18.4375 2.4375 -18.4375 C 2.664062 -18.4375 2.878906 -18.390625 3.078125 -18.296875 C 3.273438 -18.210938 3.453125 -18.082031 3.609375 -17.90625 L 9.5 -11.5 L 15.453125 -17.90625 C 15.609375 -18.082031 15.789062 -18.210938 16 -18.296875 C 16.21875 -18.390625 16.429688 -18.4375 16.640625 -18.4375 C 16.859375 -18.4375 17.070312 -18.394531 17.28125 -18.3125 C 17.488281 -18.226562 17.679688 -18.097656 17.859375 -17.921875 C 18.191406 -17.585938 18.359375 -17.191406 18.359375 -16.734375 C 18.359375 -16.515625 18.316406 -16.300781 18.234375 -16.09375 C 18.148438 -15.882812 18.03125 -15.695312 17.875 -15.53125 Z M 11.65625 -9.15625 "/></g></g></g><g fill="#e0f2f1" fill-opacity="1"><g transform="translate(92.047865, 19.810659)"><g><path d="M 11.65625 -9.15625 L 17.828125 -2.734375 C 17.992188 -2.566406 18.113281 -2.378906 18.1875 -2.171875 C 18.269531 -1.960938 18.3125 -1.75 18.3125 -1.53125 C 18.3125 -1.320312 18.269531 -1.109375 18.1875 -0.890625 C 18.113281 -0.679688 17.988281 -0.492188 17.8125 -0.328125 C 17.46875 0.015625 17.054688 0.1875 16.578125 0.1875 C 16.109375 0.1875 15.71875 0.0078125 15.40625 -0.34375 L 9.46875 -6.84375 L 3.546875 -0.34375 C 3.242188 0 2.851562 0.171875 2.375 0.171875 C 2.144531 0.171875 1.925781 0.128906 1.71875 0.046875 C 1.507812 -0.0351562 1.316406 -0.160156 1.140625 -0.328125 C 0.960938 -0.492188 0.832031 -0.679688 0.75 -0.890625 C 0.675781 -1.109375 0.640625 -1.320312 0.640625 -1.53125 C 0.640625 -1.988281 0.800781 -2.390625 1.125 -2.734375 L 7.328125 -9.21875 L 1.1875 -15.53125 C 1.019531 -15.695312 0.894531 -15.882812 0.8125 -16.09375 C 0.726562 -16.300781 0.6875 -16.515625 0.6875 -16.734375 C 0.6875 -17.191406 0.859375 -17.585938 1.203125 -17.921875 C 1.367188 -18.097656 1.5625 -18.226562 1.78125 -18.3125 C 2.007812 -18.394531 2.226562 -18.4375 2.4375 -18.4375 C 2.664062 -18.4375 2.878906 -18.390625 3.078125 -18.296875 C 3.273438 -18.210938 3.453125 -18.082031 3.609375 -17.90625 L 9.5 -11.5 L 15.453125 -17.90625 C 15.609375 -18.082031 15.789062 -18.210938 16 -18.296875 C 16.21875 -18.390625 16.429688 -18.4375 16.640625 -18.4375 C 16.859375 -18.4375 17.070312 -18.394531 17.28125 -18.3125 C 17.488281 -18.226562 17.679688 -18.097656 17.859375 -17.921875 C 18.191406 -17.585938 18.359375 -17.191406 18.359375 -16.734375 C 18.359375 -16.515625 18.316406 -16.300781 18.234375 -16.09375 C 18.148438 -15.882812 18.03125 -15.695312 17.875 -15.53125 Z M 11.65625 -9.15625 "/></g></g></g></g></g></svg>