<svg xmlns="http://www.w3.org/2000/svg" xmlns:xlink="http://www.w3.org/1999/xlink" width="500" zoomAndPan="magnify" viewBox="0 0 375 374.999991" height="500" preserveAspectRatio="xMidYMid meet" version="1.0"><defs><clipPath id="eee71c9bfb"><path d="M 37.503906 150 L 342.753906 150 L 342.753906 362.179688 L 37.503906 362.179688 Z M 37.503906 150 " clip-rule="nonzero"/></clipPath><clipPath id="e224594083"><path d="M 37.503906 80 L 342.753906 80 L 342.753906 296 L 37.503906 296 Z M 37.503906 80 " clip-rule="nonzero"/></clipPath><clipPath id="0a0bc97e8f"><path d="M 37.503906 12.679688 L 342.753906 12.679688 L 342.753906 228 L 37.503906 228 Z M 37.503906 12.679688 " clip-rule="nonzero"/></clipPath></defs><g clip-path="url(#eee71c9bfb)"><path fill="#ffd700" d="M 37.867188 361.9375 L 342.554688 362.179688 L 190.511719 150.601562 Z M 37.867188 361.9375 " fill-opacity="1" fill-rule="nonzero"/></g><g clip-path="url(#e224594083)"><path fill="#ffd700" d="M 42.335938 290.808594 L 190.511719 85.632812 L 337.964844 290.929688 L 42.335938 290.808594 M 37.503906 290.808594 C 37.503906 291.53125 37.625 292.257812 37.988281 292.980469 C 38.832031 294.550781 40.523438 295.636719 42.335938 295.636719 L 337.964844 295.757812 C 339.777344 295.757812 341.464844 294.792969 342.3125 293.101562 C 342.671875 292.378906 342.792969 291.652344 342.792969 290.929688 C 342.792969 289.960938 342.433594 288.996094 341.828125 288.152344 L 194.375 82.851562 C 193.410156 81.644531 191.960938 80.800781 190.511719 80.800781 C 188.941406 80.800781 187.492188 81.523438 186.648438 82.851562 L 38.472656 287.910156 C 37.867188 288.753906 37.503906 289.722656 37.503906 290.808594 Z M 37.503906 290.808594 " fill-opacity="1" fill-rule="nonzero"/></g><g clip-path="url(#0a0bc97e8f)"><path fill="#ffd700" d="M 42.578125 222.699219 L 190.753906 17.640625 L 338.207031 222.9375 L 42.578125 222.699219 M 37.746094 222.699219 C 37.746094 223.421875 37.867188 224.144531 38.230469 224.871094 C 39.074219 226.441406 40.765625 227.527344 42.578125 227.527344 L 338.207031 227.769531 C 340.015625 227.769531 341.707031 226.804688 342.554688 225.113281 C 342.914062 224.386719 343.035156 223.664062 343.035156 222.9375 C 343.035156 221.972656 342.671875 221.007812 342.070312 220.160156 L 194.617188 14.863281 C 193.652344 13.65625 192.203125 12.8125 190.753906 12.8125 C 189.183594 12.8125 187.734375 13.535156 186.890625 14.863281 L 38.710938 219.800781 C 38.109375 220.644531 37.746094 221.730469 37.746094 222.699219 Z M 37.746094 222.699219 " fill-opacity="1" fill-rule="nonzero"/></g></svg>